<?xml version="1.0" encoding="UTF-8" standalone="no"?>
<!DOCTYPE svg PUBLIC "-//W3C//DTD SVG 1.1//EN"
 "http://www.w3.org/Graphics/SVG/1.1/DTD/svg11.dtd">
<!-- Generated by graphviz version 14.1.4 (20260321.0153)
 -->
<!-- Title: G Pages: 1 -->
<svg width="906pt" height="466pt"
 viewBox="0.00 0.00 906.00 466.00" xmlns="http://www.w3.org/2000/svg" xmlns:xlink="http://www.w3.org/1999/xlink">
<g id="graph0" class="graph" transform="scale(1 1) rotate(0) translate(4 461.71)">
<title>G</title><style>.edge>path:hover{stroke-width:8}</style>
<polygon fill="white" stroke="none" points="-4,4 -4,-461.71 902.39,-461.71 902.39,4 -4,4"/>
<!-- agent_config -->
<g id="node1" class="node">
<title>agent_config</title><style>.edge>path:hover{stroke-width:8}</style>
<ellipse fill="#b83d3d" stroke="black" cx="313.07" cy="-219.08" rx="41.64" ry="18"/>
<text xml:space="preserve" text-anchor="middle" x="313.07" y="-215.58" font-family="Helvetica,sans-Serif" font-size="10.00" fill="#ffffff">agent.config</text>
</g>
<!-- agent_session -->
<g id="node8" class="node">
<title>agent_session</title><style>.edge>path:hover{stroke-width:8}</style>
<ellipse fill="#964040" stroke="black" cx="170.07" cy="-129.34" rx="46.15" ry="18"/>
<text xml:space="preserve" text-anchor="middle" x="170.07" y="-125.84" font-family="Helvetica,sans-Serif" font-size="10.00" fill="#ffffff">agent.session</text>
</g>
<!-- agent_config&#45;&gt;agent_session -->
<g id="edge1" class="edge">
<title>agent_config&#45;&gt;agent_session</title><style>.edge>path:hover{stroke-width:8}</style>
<path fill="none" stroke="black" d="M289.78,-203.79C266.34,-189.4 229.97,-167.09 203.46,-150.82"/>
<polygon fill="#b83d3d" stroke="black" points="205.48,-147.95 195.12,-145.71 201.82,-153.92 205.48,-147.95"/>
</g>
<!-- agent_domain -->
<g id="node2" class="node">
<title>agent_domain</title><style>.edge>path:hover{stroke-width:8}</style>
<ellipse fill="#f91010" stroke="black" cx="420.07" cy="-295.71" rx="44.8" ry="18"/>
<text xml:space="preserve" text-anchor="middle" x="420.07" y="-292.21" font-family="Helvetica,sans-Serif" font-size="10.00" fill="#ffffff">agent.domain</text>
</g>
<!-- agent_domain&#45;&gt;agent_config -->
<g id="edge2" class="edge">
<title>agent_domain&#45;&gt;agent_config</title><style>.edge>path:hover{stroke-width:8}</style>
<path fill="none" stroke="black" d="M398.42,-279.6C382.65,-268.61 361.09,-253.56 343.58,-241.35"/>
<polygon fill="#f91010" stroke="black" points="345.78,-238.62 335.57,-235.77 341.77,-244.36 345.78,-238.62"/>
</g>
<!-- agent_processing -->
<g id="node3" class="node">
<title>agent_processing</title><style>.edge>path:hover{stroke-width:8}</style>
<ellipse fill="#b83d3d" stroke="black" cx="456.07" cy="-219.08" rx="44.72" ry="22.63"/>
<text xml:space="preserve" text-anchor="middle" x="456.07" y="-221.58" font-family="Helvetica,sans-Serif" font-size="10.00" fill="#ffffff">agent.</text>
<text xml:space="preserve" text-anchor="middle" x="456.07" y="-209.58" font-family="Helvetica,sans-Serif" font-size="10.00" fill="#ffffff">processing</text>
</g>
<!-- agent_domain&#45;&gt;agent_processing -->
<g id="edge3" class="edge">
<title>agent_domain&#45;&gt;agent_processing</title><style>.edge>path:hover{stroke-width:8}</style>
<path fill="none" stroke="black" d="M428.24,-277.77C431.97,-270.04 436.51,-260.63 440.83,-251.68"/>
<polygon fill="#f91010" stroke="black" points="443.89,-253.38 445.09,-242.86 437.59,-250.34 443.89,-253.38"/>
</g>
<!-- agent_processing_fft_pipeline -->
<g id="node4" class="node">
<title>agent_processing_fft_pipeline</title><style>.edge>path:hover{stroke-width:8}</style>
<ellipse fill="#a83838" stroke="black" cx="815.07" cy="-129.34" rx="46.85" ry="31.11"/>
<text xml:space="preserve" text-anchor="middle" x="815.07" y="-137.84" font-family="Helvetica,sans-Serif" font-size="10.00" fill="#ffffff">agent.</text>
<text xml:space="preserve" text-anchor="middle" x="815.07" y="-125.84" font-family="Helvetica,sans-Serif" font-size="10.00" fill="#ffffff">processing.</text>
<text xml:space="preserve" text-anchor="middle" x="815.07" y="-113.84" font-family="Helvetica,sans-Serif" font-size="10.00" fill="#ffffff">fft_pipeline</text>
</g>
<!-- agent_domain&#45;&gt;agent_processing_fft_pipeline -->
<g id="edge4" class="edge">
<title>agent_domain&#45;&gt;agent_processing_fft_pipeline</title><style>.edge>path:hover{stroke-width:8}</style>
<path fill="none" stroke="black" d="M462.42,-289.35C539.29,-278.9 697.85,-253.86 741.07,-220.08"/>
<path fill="none" stroke="black" d="M741.07,-218.08C759.36,-203.79 776.32,-184.35 789.38,-167.4"/>
<polygon fill="#f91010" stroke="black" points="792.1,-169.6 795.3,-159.5 786.5,-165.39 792.1,-169.6"/>
</g>
<!-- agent_processing_parse_iq -->
<g id="node5" class="node">
<title>agent_processing_parse_iq</title><style>.edge>path:hover{stroke-width:8}</style>
<ellipse fill="#a83838" stroke="black" cx="703.07" cy="-129.34" rx="46.85" ry="31.11"/>
<text xml:space="preserve" text-anchor="middle" x="703.07" y="-137.84" font-family="Helvetica,sans-Serif" font-size="10.00" fill="#ffffff">agent.</text>
<text xml:space="preserve" text-anchor="middle" x="703.07" y="-125.84" font-family="Helvetica,sans-Serif" font-size="10.00" fill="#ffffff">processing.</text>
<text xml:space="preserve" text-anchor="middle" x="703.07" y="-113.84" font-family="Helvetica,sans-Serif" font-size="10.00" fill="#ffffff">parse_iq</text>
</g>
<!-- agent_domain&#45;&gt;agent_processing_parse_iq -->
<g id="edge5" class="edge">
<title>agent_domain&#45;&gt;agent_processing_parse_iq</title><style>.edge>path:hover{stroke-width:8}</style>
<path fill="none" stroke="black" d="M465.14,-294.93C514.48,-292.92 593.55,-282.81 646.07,-241.71 668.62,-224.06 683.06,-195.06 691.76,-171.08"/>
<polygon fill="#f91010" stroke="black" points="694.98,-172.5 694.88,-161.9 688.35,-170.25 694.98,-172.5"/>
</g>
<!-- agent_processing_processor -->
<g id="node6" class="node">
<title>agent_processing_processor</title><style>.edge>path:hover{stroke-width:8}</style>
<ellipse fill="#883a3a" stroke="black" cx="759.07" cy="-31.11" rx="46.85" ry="31.11"/>
<text xml:space="preserve" text-anchor="middle" x="759.07" y="-39.61" font-family="Helvetica,sans-Serif" font-size="10.00" fill="#ffffff">agent.</text>
<text xml:space="preserve" text-anchor="middle" x="759.07" y="-27.61" font-family="Helvetica,sans-Serif" font-size="10.00" fill="#ffffff">processing.</text>
<text xml:space="preserve" text-anchor="middle" x="759.07" y="-15.61" font-family="Helvetica,sans-Serif" font-size="10.00" fill="#ffffff">processor</text>
</g>
<!-- agent_domain&#45;&gt;agent_processing_processor -->
<g id="edge6" class="edge">
<title>agent_domain&#45;&gt;agent_processing_processor</title><style>.edge>path:hover{stroke-width:8}</style>
<path fill="none" stroke="black" d="M628.07,-128.34C636.08,-114.69 635.72,-109.25 647.07,-98.23 665.38,-80.45 689.35,-65.49 710.42,-54.31"/>
<polygon fill="#f91010" stroke="black" points="711.85,-57.51 719.14,-49.83 708.65,-51.29 711.85,-57.51"/>
<path fill="none" stroke="black" d="M448.04,-281.4C466.67,-271.8 491.11,-257.75 510.07,-241.71 530.12,-224.74 529.43,-214.95 548.07,-196.45 580.82,-163.96 604.75,-170.13 628.07,-130.34"/>
</g>
<!-- agent_protocol -->
<g id="node7" class="node">
<title>agent_protocol</title><style>.edge>path:hover{stroke-width:8}</style>
<ellipse fill="#b83d3d" stroke="black" cx="207.07" cy="-219.08" rx="46.6" ry="18"/>
<text xml:space="preserve" text-anchor="middle" x="207.07" y="-215.58" font-family="Helvetica,sans-Serif" font-size="10.00" fill="#ffffff">agent.protocol</text>
</g>
<!-- agent_domain&#45;&gt;agent_protocol -->
<g id="edge7" class="edge">
<title>agent_domain&#45;&gt;agent_protocol</title><style>.edge>path:hover{stroke-width:8}</style>
<path fill="none" stroke="black" d="M385.69,-283.73C353.56,-273.35 304.35,-257.1 262.07,-241.71 257.86,-240.17 253.47,-238.53 249.11,-236.86"/>
<polygon fill="#f91010" stroke="black" points="250.38,-233.6 239.79,-233.25 247.85,-240.13 250.38,-233.6"/>
</g>
<!-- agent_domain&#45;&gt;agent_session -->
<g id="edge8" class="edge">
<title>agent_domain&#45;&gt;agent_session</title><style>.edge>path:hover{stroke-width:8}</style>
<path fill="none" stroke="black" d="M375.65,-292.57C306.72,-288.21 179,-275.67 151.07,-241.71 131.65,-218.08 142.94,-181.92 154.73,-157.26"/>
<polygon fill="#f91010" stroke="black" points="157.78,-158.99 159.21,-148.49 151.54,-155.8 157.78,-158.99"/>
</g>
<!-- agent_source_base -->
<g id="node9" class="node">
<title>agent_source_base</title><style>.edge>path:hover{stroke-width:8}</style>
<ellipse fill="#b83d3d" stroke="black" cx="344.07" cy="-129.34" rx="34.12" ry="31.11"/>
<text xml:space="preserve" text-anchor="middle" x="344.07" y="-137.84" font-family="Helvetica,sans-Serif" font-size="10.00" fill="#ffffff">agent.</text>
<text xml:space="preserve" text-anchor="middle" x="344.07" y="-125.84" font-family="Helvetica,sans-Serif" font-size="10.00" fill="#ffffff">source.</text>
<text xml:space="preserve" text-anchor="middle" x="344.07" y="-113.84" font-family="Helvetica,sans-Serif" font-size="10.00" fill="#ffffff">base</text>
</g>
<!-- agent_domain&#45;&gt;agent_source_base -->
<g id="edge9" class="edge">
<title>agent_domain&#45;&gt;agent_source_base</title><style>.edge>path:hover{stroke-width:8}</style>
<path fill="none" stroke="black" d="M412.23,-277.73C400.4,-252.16 377.71,-203.09 361.77,-168.61"/>
<polygon fill="#f91010" stroke="black" points="365.07,-167.4 357.69,-159.79 358.71,-170.34 365.07,-167.4"/>
</g>
<!-- agent_source_sigmf -->
<g id="node10" class="node">
<title>agent_source_sigmf</title><style>.edge>path:hover{stroke-width:8}</style>
<ellipse fill="#9d4343" stroke="black" cx="344.07" cy="-31.11" rx="34.12" ry="31.11"/>
<text xml:space="preserve" text-anchor="middle" x="344.07" y="-39.61" font-family="Helvetica,sans-Serif" font-size="10.00" fill="#ffffff">agent.</text>
<text xml:space="preserve" text-anchor="middle" x="344.07" y="-27.61" font-family="Helvetica,sans-Serif" font-size="10.00" fill="#ffffff">source.</text>
<text xml:space="preserve" text-anchor="middle" x="344.07" y="-15.61" font-family="Helvetica,sans-Serif" font-size="10.00" fill="#ffffff">sigmf</text>
</g>
<!-- agent_domain&#45;&gt;agent_source_sigmf -->
<g id="edge10" class="edge">
<title>agent_domain&#45;&gt;agent_source_sigmf</title><style>.edge>path:hover{stroke-width:8}</style>
<path fill="none" stroke="black" d="M375.72,-292.09C276.27,-285.78 42.33,-268.24 19.07,-241.71 -71.56,-138.31 190.79,-66.21 299.38,-41.51"/>
<polygon fill="#f91010" stroke="black" points="300.14,-44.92 309.13,-39.33 298.61,-38.09 300.14,-44.92"/>
</g>
<!-- agent_telemetry -->
<g id="node11" class="node">
<title>agent_telemetry</title><style>.edge>path:hover{stroke-width:8}</style>
<ellipse fill="#ac4949" stroke="black" cx="597.07" cy="-219.08" rx="39.95" ry="22.63"/>
<text xml:space="preserve" text-anchor="middle" x="597.07" y="-221.58" font-family="Helvetica,sans-Serif" font-size="10.00" fill="#ffffff">agent.</text>
<text xml:space="preserve" text-anchor="middle" x="597.07" y="-209.58" font-family="Helvetica,sans-Serif" font-size="10.00" fill="#ffffff">telemetry</text>
</g>
<!-- agent_domain&#45;&gt;agent_telemetry -->
<g id="edge11" class="edge">
<title>agent_domain&#45;&gt;agent_telemetry</title><style>.edge>path:hover{stroke-width:8}</style>
<path fill="none" stroke="black" d="M450.1,-282.05C478.9,-269.9 522.65,-251.46 554.94,-237.84"/>
<polygon fill="#f91010" stroke="black" points="556.16,-241.13 564.01,-234.02 553.44,-234.68 556.16,-241.13"/>
</g>
<!-- agent_processing_fft_pipeline&#45;&gt;agent_processing_processor -->
<g id="edge12" class="edge">
<title>agent_processing_fft_pipeline&#45;&gt;agent_processing_processor</title><style>.edge>path:hover{stroke-width:8}</style>
<path fill="none" stroke="black" d="M798.58,-99.99C793.15,-90.67 787.04,-80.16 781.27,-70.25"/>
<polygon fill="#a83838" stroke="black" points="784.46,-68.78 776.41,-61.9 778.41,-72.3 784.46,-68.78"/>
</g>
<!-- agent_processing_parse_iq&#45;&gt;agent_processing_processor -->
<g id="edge13" class="edge">
<title>agent_processing_parse_iq&#45;&gt;agent_processing_processor</title><style>.edge>path:hover{stroke-width:8}</style>
<path fill="none" stroke="black" d="M719.57,-99.99C724.99,-90.67 731.11,-80.16 736.88,-70.25"/>
<polygon fill="#a83838" stroke="black" points="739.73,-72.3 741.74,-61.9 733.68,-68.78 739.73,-72.3"/>
</g>
<!-- agent_protocol&#45;&gt;agent_session -->
<g id="edge14" class="edge">
<title>agent_protocol&#45;&gt;agent_session</title><style>.edge>path:hover{stroke-width:8}</style>
<path fill="none" stroke="black" d="M199.94,-201.16C194.75,-188.86 187.62,-171.94 181.62,-157.73"/>
<polygon fill="#b83d3d" stroke="black" points="185.01,-156.75 177.9,-148.9 178.56,-159.47 185.01,-156.75"/>
</g>
<!-- agent_source_base&#45;&gt;agent_source_sigmf -->
<g id="edge15" class="edge">
<title>agent_source_base&#45;&gt;agent_source_sigmf</title><style>.edge>path:hover{stroke-width:8}</style>
<path fill="none" stroke="black" d="M344.07,-97.89C344.07,-90.35 344.07,-82.12 344.07,-74.13"/>
<polygon fill="#b83d3d" stroke="black" points="347.57,-74.2 344.07,-64.2 340.57,-74.2 347.57,-74.2"/>
</g>
<!-- agent_transport -->
<g id="node12" class="node">
<title>agent_transport</title><style>.edge>path:hover{stroke-width:8}</style>
<ellipse fill="#c24747" stroke="black" cx="66.07" cy="-219.08" rx="38.36" ry="22.63"/>
<text xml:space="preserve" text-anchor="middle" x="66.07" y="-221.58" font-family="Helvetica,sans-Serif" font-size="10.00" fill="#ffffff">agent.</text>
<text xml:space="preserve" text-anchor="middle" x="66.07" y="-209.58" font-family="Helvetica,sans-Serif" font-size="10.00" fill="#ffffff">transport</text>
</g>
<!-- agent_transport&#45;&gt;agent_session -->
<g id="edge16" class="edge">
<title>agent_transport&#45;&gt;agent_session</title><style>.edge>path:hover{stroke-width:8}</style>
<path fill="none" stroke="black" d="M87.62,-199.9C103.63,-186.39 125.59,-167.87 142.82,-153.33"/>
<polygon fill="#c24747" stroke="black" points="144.8,-156.24 150.19,-147.12 140.28,-150.89 144.8,-156.24"/>
</g>
<!-- numpy -->
<g id="node13" class="node">
<title>numpy</title><style>.edge>path:hover{stroke-width:8}</style>
<polygon fill="blue" stroke="black" points="815.07,-385.71 761.07,-385.71 761.07,-349.71 815.07,-349.71 815.07,-385.71"/>
<text xml:space="preserve" text-anchor="middle" x="788.07" y="-364.21" font-family="Helvetica,sans-Serif" font-size="10.00" fill="white">numpy</text>
</g>
<!-- numpy&#45;&gt;agent_processing_fft_pipeline -->
<g id="edge17" class="edge">
<title>numpy&#45;&gt;agent_processing_fft_pipeline</title><style>.edge>path:hover{stroke-width:8}</style>
<path fill="none" stroke="black" d="M741.07,-294.71C727.83,-264.3 714.94,-240.5 741.07,-220.08"/>
</g>
<!-- numpy&#45;&gt;agent_processing_parse_iq -->
<g id="edge18" class="edge">
<title>numpy&#45;&gt;agent_processing_parse_iq</title><style>.edge>path:hover{stroke-width:8}</style>
<path fill="none" stroke="black" d="M703.07,-218.08C696.57,-203.83 695.29,-186.88 696.09,-171.69"/>
<polygon fill="blue" stroke="black" points="699.55,-172.27 696.92,-162 692.58,-171.67 699.55,-172.27"/>
</g>
<!-- numpy&#45;&gt;agent_processing_processor -->
<g id="edge19" class="edge">
<title>numpy&#45;&gt;agent_processing_processor</title><style>.edge>path:hover{stroke-width:8}</style>
<path fill="none" stroke="black" d="M741.07,-294.71C726.21,-260.58 718.53,-253.94 703.07,-220.08"/>
<path fill="none" stroke="black" d="M703.07,-218.08C681.78,-171.41 602.13,-174.6 628.07,-130.34"/>
<path fill="none" stroke="black" d="M773.79,-349.33C763.31,-335.76 749.49,-316.03 741.07,-296.71"/>
</g>
<!-- numpy_typing -->
<g id="node14" class="node">
<title>numpy_typing</title><style>.edge>path:hover{stroke-width:8}</style>
<polygon fill="blue" stroke="black" points="851.95,-457.71 778.2,-457.71 778.2,-421.71 851.95,-421.71 851.95,-457.71"/>
<text xml:space="preserve" text-anchor="middle" x="815.07" y="-436.21" font-family="Helvetica,sans-Serif" font-size="10.00" fill="white">numpy.typing</text>
</g>
<!-- numpy_typing&#45;&gt;agent_processing_fft_pipeline -->
<g id="edge20" class="edge">
<title>numpy_typing&#45;&gt;agent_processing_fft_pipeline</title><style>.edge>path:hover{stroke-width:8}</style>
<path fill="none" stroke="black" d="M890.07,-218.08C881.61,-197.24 866.15,-177.82 851.46,-162.56"/>
<polygon fill="blue" stroke="black" points="854.05,-160.2 844.5,-155.61 849.1,-165.15 854.05,-160.2"/>
</g>
<!-- numpy_typing&#45;&gt;agent_processing_parse_iq -->
<g id="edge21" class="edge">
<title>numpy_typing&#45;&gt;agent_processing_parse_iq</title><style>.edge>path:hover{stroke-width:8}</style>
<path fill="none" stroke="black" d="M890.07,-218.08C866.13,-159.15 816.24,-188.34 759.07,-160.45 755.65,-158.78 752.12,-157.01 748.6,-155.2"/>
<polygon fill="blue" stroke="black" points="750.53,-152.26 740.05,-150.74 747.29,-158.47 750.53,-152.26"/>
<path fill="none" stroke="black" d="M829.48,-421.46C858.76,-384.22 919.98,-293.69 890.07,-220.08"/>
</g>
<!-- numpy_typing&#45;&gt;agent_processing_processor -->
<g id="edge22" class="edge">
<title>numpy_typing&#45;&gt;agent_processing_processor</title><style>.edge>path:hover{stroke-width:8}</style>
<path fill="none" stroke="black" d="M890.07,-218.08C868.7,-168.56 901.41,-142.82 871.07,-98.23 856.55,-76.87 832.64,-61.4 810.64,-50.82"/>
<polygon fill="blue" stroke="black" points="812.3,-47.73 801.75,-46.78 809.41,-54.1 812.3,-47.73"/>
</g>
<!-- numpy_typing&#45;&gt;numpy -->
<g id="edge23" class="edge">
<title>numpy_typing&#45;&gt;numpy</title><style>.edge>path:hover{stroke-width:8}</style>
<path fill="none" stroke="black" d="M808.4,-421.4C805.49,-413.86 802.01,-404.82 798.75,-396.39"/>
<polygon fill="blue" stroke="black" points="802.08,-395.29 795.22,-387.22 795.55,-397.81 802.08,-395.29"/>
</g>
</g>
</svg>
